HIERARCHY
ROOT Hips
{
	OFFSET -3.958830 18.904000 13.208200
	CHANNELS 6 Xposition Yposition Zposition Zrotation Yrotation Xrotation 
	JOINT LHipJoint
	{
		OFFSET 0.000000 0.000000 0.000000
		CHANNELS 3 Zrotation Yrotation Xrotation
		JOINT LeftUpLeg
		{
			OFFSET 1.800000 -1.400000 0.085000
			CHANNELS 3 Zrotation Yrotation Xrotation
			JOINT LeftLeg
			{
				OFFSET 2.215000 -6.000000 0.000000
				CHANNELS 3 Zrotation Yrotation Xrotation
				JOINT LeftFoot
				{
					OFFSET 2.500000 -6.900000 0.000000
					CHANNELS 3 Zrotation Yrotation Xrotation
					JOINT LeftToeBase
					{
						OFFSET 0.200000 -0.500000 1.950000
						CHANNELS 3 Zrotation Yrotation Xrotation
						End Site
						{
							OFFSET 0.000000 0.000000 0.000000
						}
					}
				}
			}
		}
	}
	JOINT RHipJoint
	{
		OFFSET 0.000000 0.000000 0.000000
		CHANNELS 3 Zrotation Yrotation Xrotation
		JOINT RightUpLeg
		{
			OFFSET -1.800000 -1.400000 0.085000
			CHANNELS 3 Zrotation Yrotation Xrotation
			JOINT RightLeg
			{
				OFFSET -2.215000 -6.000000 0.000000
				CHANNELS 3 Zrotation Yrotation Xrotation
				JOINT RightFoot
				{
					OFFSET -2.500000 -6.900000 0.000000
					CHANNELS 3 Zrotation Yrotation Xrotation
					JOINT RightToeBase
					{
						OFFSET -0.200000 -0.500000 1.950000
						CHANNELS 3 Zrotation Yrotation Xrotation
						End Site
						{
							OFFSET 0.000000 0.000000 0.000000
						}
					}
				}
			}
		}
	}
	JOINT LowerBack
	{
		OFFSET 0.000000 0.000000 0.000000
		CHANNELS 3 Zrotation Yrotation Xrotation
		JOINT Spine
		{
			OFFSET -0.087000 1.940000 -0.288900
			CHANNELS 3 Zrotation Yrotation Xrotation
			JOINT Spine1
			{
				OFFSET 0.000000 1.950000 0.060000
				CHANNELS 3 Zrotation Yrotation Xrotation
				JOINT Neck
				{
					OFFSET 0.000000 0.000000 0.000000
					CHANNELS 3 Zrotation Yrotation Xrotation
					JOINT Neck1
					{
						OFFSET 0.000000 1.600000 0.340000
						CHANNELS 3 Zrotation Yrotation Xrotation
						JOINT Head
						{
							OFFSET 0.000000 1.667000 -0.240000
							CHANNELS 3 Zrotation Yrotation Xrotation
							End Site
							{
								OFFSET 0.000000 0.000000 0.000000
							}
						}
					}
				}
				JOINT LeftShoulder
				{
					OFFSET 0.000000 0.000000 0.000000
					CHANNELS 3 Zrotation Yrotation Xrotation
					JOINT LeftArm
					{
						OFFSET 2.700000 1.550000 -0.730000
						CHANNELS 3 Zrotation Yrotation Xrotation
						JOINT LeftForeArm
						{
							OFFSET 5.450000 0.000000 0.000000
							CHANNELS 3 Zrotation Yrotation Xrotation
							JOINT LeftHand
							{
								OFFSET 3.450000 0.000000 0.000000
								CHANNELS 3 Zrotation Yrotation Xrotation
								JOINT LeftHandIndex1
								{
									OFFSET 0.750000 0.000000 0.000000
									CHANNELS 3 Zrotation Yrotation Xrotation
									End Site
									{
										OFFSET 0.000000 0.000000 0.000000
									}
								}
							}
						}
					}
				}
				JOINT RightShoulder
				{
					OFFSET 0.000000 0.000000 0.000000
					CHANNELS 3 Zrotation Yrotation Xrotation
					JOINT RightArm
					{
						OFFSET -2.700000 1.550000 -0.730000
						CHANNELS 3 Zrotation Yrotation Xrotation
						JOINT RightForeArm
						{
							OFFSET -5.450000 0.000000 0.000000
							CHANNELS 3 Zrotation Yrotation Xrotation
							JOINT RightHand
							{
								OFFSET -3.450000 0.000000 0.000000
								CHANNELS 3 Zrotation Yrotation Xrotation
								JOINT RightHandIndex1
								{
									OFFSET -0.750000 0.000000 0.000000
									CHANNELS 3 Zrotation Yrotation Xrotation
									End Site
									{
										OFFSET 0.000000 0.000000 0.000000
									}
								}
							}
						}
					}
				}
			}
		}
	}
}
MOTION
Frames: 7
Frame Time: 0.016667
0.341870 17.105010 -2.149540 -1.251467 -17.947932 -7.981834 -15.564703 14.451037 3.341296 4.717275 0.698614 -2.590833 -7.762427 5.394538 4.958704 -1.055795 5.370814 3.103193 -0.788620 -1.304280 -0.823650 17.755758 -9.933816 2.963977 -9.124136 -0.910685 2.782424 8.827728 -5.916836 1.820628 -0.421907 -4.353643 3.333595 -0.582020 1.042570 0.144560 -1.949209 -5.392221 -8.248747 2.276269 2.362053 35.189384 4.150728 4.928869 7.774472 1.817387 -4.673122 -16.537286 -12.824174 6.484448 41.135002 -10.006890 4.106970 -26.448600 -10.618257 -18.541417 8.081207 -1.429939 4.559039 -2.078728 -78.247232 -67.137903 49.075498 -4.029512 2.542027 1.394200 0.282620 -0.247900 0.099230 8.441743 24.840365 13.796844 41.345879 5.510247 -18.436025 -112.308764 48.711473 -81.813014 1.463350 0.010390 -1.087180 0.955960 1.051210 -0.273350 
0.374330 17.109140 -2.146310 -1.927284 -17.259705 -8.247540 -15.478449 14.392995 3.336679 5.485376 0.755641 -2.100782 -8.045921 5.467039 4.896368 -1.029906 5.421167 3.084251 -0.768180 -1.277230 -0.821650 17.836614 -10.018992 3.003591 -8.221902 -1.081951 3.444807 7.993394 -5.896641 1.928362 -0.453578 -4.367097 3.334517 -0.576660 1.026740 0.145390 -2.203488 -5.150095 -8.236713 4.593477 0.974717 36.077012 2.458542 3.973124 7.881864 1.885308 -5.083618 -16.615718 -13.815848 6.755213 41.079795 -9.591080 3.817640 -27.261090 -10.520935 -19.169393 8.017522 -0.745449 4.447763 -2.766107 -71.200774 -68.756358 45.225822 -3.955225 2.608277 1.396570 0.264830 -0.235430 0.107960 8.077345 25.273065 13.859113 41.506607 5.676674 -18.947726 -112.021857 47.465738 -80.184248 1.454750 -0.046388 -1.069120 0.950940 1.037630 -0.265310 
0.433950 17.106180 -2.143390 -2.801285 -16.324479 -8.860265 -15.281125 14.176717 3.311676 6.397481 0.785408 -1.156092 -8.669195 5.616299 4.972866 -1.000049 5.505994 3.051279 -0.742270 -1.239970 -0.818800 18.029770 -10.278639 3.041255 -6.829640 -1.376629 4.089459 6.395153 -5.903443 2.777853 -0.489126 -4.396275 3.315775 -0.560150 1.006720 0.145020 -2.785672 -4.377361 -8.125138 8.688099 -1.461315 37.385865 -0.823979 2.148023 8.408758 1.733676 -5.910725 -16.361433 -15.290004 6.965312 39.538988 -8.835720 3.212660 -28.866610 -9.722433 -20.055951 7.586787 0.243870 3.928533 -4.467954 -53.105372 -71.160296 33.557704 -3.834485 2.712307 1.386450 0.240570 -0.227830 0.113280 7.298163 25.658629 13.820086 42.190485 6.387415 -19.677415 -112.010713 45.147574 -77.959912 1.447544 -0.161510 -1.047100 0.942770 1.024090 -0.252800 
0.498310 17.095170 -2.133440 -3.678199 -15.155797 -9.527739 -15.075430 13.910141 3.258509 7.269168 0.771386 -0.179223 -9.370698 5.826405 5.328792 -1.015249 5.649353 3.007947 -0.731530 -1.217460 -0.831750 18.243925 -10.576415 3.043214 -5.204717 -1.646327 4.335219 4.288447 -5.869072 4.257166 -0.496862 -4.418014 3.308112 -0.524050 1.034360 0.128080 -3.413195 -3.465652 -7.951306 13.087397 -4.128669 37.716462 -4.048406 -0.045191 9.747336 1.394669 -6.879022 -16.201839 -16.960433 7.153149 37.369948 -7.543920 2.389120 -28.714010 -8.397283 -21.621623 7.281779 0.377985 2.608579 -6.796132 -23.260334 -70.826608 12.109171 -3.774345 2.646805 1.370890 0.252550 -0.250730 0.121560 6.470300 26.393353 13.961925 42.673859 6.550931 -20.868364 -112.197345 42.500986 -75.906083 1.413685 -0.274733 -1.064440 0.979040 1.031420 -0.243660 
0.553120 17.086880 -2.120580 -4.134803 -14.131743 -10.655629 -14.867828 13.549271 3.180502 7.721620 0.804566 1.455084 -9.842687 5.983280 5.553899 -1.036931 5.770198 2.956046 -0.655640 -1.103860 -0.814850 18.481104 -10.952849 2.975283 -3.679683 -1.896018 4.259853 1.362829 -5.760834 6.864902 -0.530937 -4.463595 3.266633 -0.437900 1.032920 0.141560 -4.082476 -2.296336 -7.703698 16.978234 -6.528241 37.294025 -7.202194 -2.401233 12.908545 0.756299 -7.910564 -15.467823 -18.369624 7.139593 34.322403 -5.696440 1.181320 -30.938220 -6.405851 -23.068274 6.857145 0.610104 -0.287401 -8.928600 1.951670 -63.268196 -3.987047 -3.755775 2.478807 1.351360 0.253910 -0.240470 0.141910 5.610647 26.783109 13.653953 42.387027 7.805234 -21.911218 -113.443496 39.574562 -75.246343 1.374975 -0.419888 -1.044920 1.000990 1.010050 -0.226430 
0.597930 17.070880 -2.099150 -4.305337 -12.268605 -11.705254 -14.698773 13.251343 3.084556 7.976167 0.729102 2.559768 -10.194285 6.211450 6.501383 -1.081685 5.895604 2.903757 -0.575390 -0.988820 -0.781470 18.678016 -11.320698 2.864594 -1.733795 -1.969101 3.296938 -2.322045 -5.411736 11.001213 -0.538567 -4.505481 3.216975 -0.335340 1.055350 0.154800 -4.633619 -1.234214 -7.478537 19.889449 -8.587127 35.966698 -9.698137 -4.436675 15.977846 -0.085617 -8.066818 -15.028445 -17.990827 6.654663 31.748660 -4.192080 0.256840 -30.081260 -4.401934 -24.731573 7.010176 1.036694 -3.377488 -9.826365 17.409825 -53.153807 -10.137594 -3.845565 2.317601 1.305510 0.291070 -0.248010 0.167920 5.282525 26.752222 13.261669 42.428839 8.162262 -22.909166 -114.801887 36.471777 -74.379003 1.325472 -0.587504 -1.036460 1.026670 0.981120 -0.212880 
0.637950 17.052080 -2.072220 -4.313279 -10.306071 -12.822549 -14.572865 12.982989 3.034057 8.265425 0.665197 4.037300 -10.863899 6.466162 6.969744 -1.123831 6.108278 2.826433 -0.492040 -0.869850 -0.749760 18.838501 -11.623960 2.692537 0.453269 -1.844078 1.269574 -6.622767 -4.757270 17.226074 -0.551556 -4.658144 3.128134 -0.220720 1.096410 0.169350 -5.071132 -0.338192 -7.289390 22.081604 -10.424898 34.369938 -11.933166 -6.190286 19.149020 -0.906688 -7.935989 -14.787184 -17.296173 6.307427 29.663328 -3.185510 -0.528050 -28.625570 -2.386942 -26.272559 7.478157 1.332293 -6.638269 -9.966497 27.965405 -41.543427 -12.130395 -4.077284 2.227224 1.257640 0.347700 -0.264720 0.199050 5.005598 26.370451 12.682094 42.535322 8.382293 -23.616391 -116.291885 33.705978 -73.853133 1.253624 -0.739428 -1.038750 1.068270 0.957370 -0.201110 
